<?xml version="1.0" encoding="utf-8" standalone="no"?>
<!DOCTYPE svg PUBLIC "-//W3C//DTD SVG 1.1//EN"
  "http://www.w3.org/Graphics/SVG/1.1/DTD/svg11.dtd">
<svg xmlns:xlink="http://www.w3.org/1999/xlink" width="250.586719pt" height="169.555625pt" viewBox="0 0 250.586719 169.555625" xmlns="http://www.w3.org/2000/svg" version="1.1">
 <metadata>
  <rdf:RDF xmlns:dc="http://purl.org/dc/elements/1.1/" xmlns:cc="http://creativecommons.org/ns#" xmlns:rdf="http://www.w3.org/1999/02/22-rdf-syntax-ns#">
   <cc:Work>
    <dc:type rdf:resource="http://purl.org/dc/dcmitype/StillImage"/>
    <dc:date>2024-09-19T16:02:49.231499</dc:date>
    <dc:format>image/svg+xml</dc:format>
    <dc:creator>
     <cc:Agent>
      <dc:title>Matplotlib v3.9.2, https://matplotlib.org/</dc:title>
     </cc:Agent>
    </dc:creator>
   </cc:Work>
  </rdf:RDF>
 </metadata>
 <defs>
  <style type="text/css">*{stroke-linejoin: round; stroke-linecap: butt}</style>
 </defs>
 <g id="figure_1">
  <g id="patch_1">
   <path d="M 0 169.555625 
L 250.586719 169.555625 
L 250.586719 0 
L 0 0 
z
" style="fill: #ffffff"/>
  </g>
  <g id="axes_1">
   <g id="line2d_1">
    <path d="M 68.53125 29.664375 
L 235.93125 29.664375 
" clip-path="url(#p587f443861)" style="fill: none; stroke: #808080; stroke-opacity: 0.1; stroke-linecap: square"/>
   </g>
   <g id="PathCollection_1">
    <defs>
     <path id="mac1cc4c06a" d="M 0 8.660254 
C 2.296726 8.660254 4.499694 7.747755 6.123724 6.123724 
C 7.747755 4.499694 8.660254 2.296726 8.660254 0 
C 8.660254 -2.296726 7.747755 -4.499694 6.123724 -6.123724 
C 4.499694 -7.747755 2.296726 -8.660254 0 -8.660254 
C -2.296726 -8.660254 -4.499694 -7.747755 -6.123724 -6.123724 
C -7.747755 -4.499694 -8.660254 -2.296726 -8.660254 0 
C -8.660254 2.296726 -7.747755 4.499694 -6.123724 6.123724 
C -4.499694 7.747755 -2.296726 8.660254 0 8.660254 
z
" style="stroke: #dae0ef"/>
    </defs>
    <g>
     <use xlink:href="#mac1cc4c06a" x="149.935317" y="29.664375" style="fill: #dae0ef; stroke: #dae0ef"/>
     <use xlink:href="#mac1cc4c06a" x="195.252892" y="29.664375" style="fill: #dae0ef; stroke: #dae0ef"/>
     <use xlink:href="#mac1cc4c06a" x="152.507347" y="29.664375" style="fill: #dae0ef; stroke: #dae0ef"/>
    </g>
   </g>
   <g id="PathCollection_2">
    <defs>
     <path id="m01fefd29ac" d="M 0 8.660254 
C 2.296726 8.660254 4.499694 7.747755 6.123724 6.123724 
C 7.747755 4.499694 8.660254 2.296726 8.660254 0 
C 8.660254 -2.296726 7.747755 -4.499694 6.123724 -6.123724 
C 4.499694 -7.747755 2.296726 -8.660254 0 -8.660254 
C -2.296726 -8.660254 -4.499694 -7.747755 -6.123724 -6.123724 
C -7.747755 -4.499694 -8.660254 -2.296726 -8.660254 0 
C -8.660254 2.296726 -7.747755 4.499694 -6.123724 6.123724 
C -4.499694 7.747755 -2.296726 8.660254 0 8.660254 
z
" style="stroke: #0033a0"/>
    </defs>
    <g>
     <use xlink:href="#m01fefd29ac" x="149.935317" y="29.664375" style="fill: #0033a0; stroke: #0033a0"/>
    </g>
   </g>
   <g id="matplotlib.axis_1">
    <g id="xtick_1"/>
    <g id="xtick_2"/>
    <g id="xtick_3"/>
    <g id="xtick_4"/>
    <g id="xtick_5"/>
    <g id="xtick_6"/>
   </g>
   <g id="matplotlib.axis_2">
    <g id="ytick_1"/>
   </g>
   <g id="text_1">
    <!-- 48 -->
    <g style="fill: #ffffff" transform="translate(145.462036 31.946016) scale(0.09 -0.09)">
     <defs>
      <path id="SourceSans3-Regular-34" d="M 666 1549 
L 1946 1549 
L 1946 2733 
Q 1946 2899 1958 3129 
Q 1971 3360 1978 3520 
L 1952 3520 
Q 1875 3373 1792 3232 
Q 1709 3091 1619 2944 
L 666 1549 
z
M 1946 0 
L 1946 1126 
L 109 1126 
L 109 1472 
L 1856 4083 
L 2445 4083 
L 2445 1549 
L 3002 1549 
L 3002 1126 
L 2445 1126 
L 2445 0 
L 1946 0 
z
" transform="scale(0.015625)"/>
      <path id="SourceSans3-Regular-38" d="M 1600 -77 
Q 1216 -77 915 67 
Q 614 211 438 467 
Q 262 723 262 1043 
Q 262 1312 374 1520 
Q 486 1728 662 1885 
Q 838 2042 1030 2144 
L 1030 2170 
Q 806 2330 633 2560 
Q 461 2790 461 3110 
Q 461 3424 614 3661 
Q 768 3898 1030 4029 
Q 1293 4160 1619 4160 
Q 2150 4160 2460 3853 
Q 2771 3546 2771 3072 
Q 2771 2861 2681 2672 
Q 2592 2483 2464 2332 
Q 2336 2182 2208 2086 
L 2208 2061 
Q 2394 1958 2554 1817 
Q 2714 1677 2816 1481 
Q 2918 1286 2918 1011 
Q 2918 710 2755 460 
Q 2592 211 2294 67 
Q 1997 -77 1600 -77 
z
M 1888 2227 
Q 2093 2413 2205 2617 
Q 2317 2822 2317 3046 
Q 2317 3347 2131 3558 
Q 1946 3770 1606 3770 
Q 1325 3770 1136 3590 
Q 947 3411 947 3110 
Q 947 2867 1078 2707 
Q 1210 2547 1427 2435 
Q 1645 2323 1888 2227 
z
M 1613 314 
Q 1971 314 2192 515 
Q 2413 717 2413 1030 
Q 2413 1293 2259 1459 
Q 2106 1626 1853 1747 
Q 1600 1869 1306 1984 
Q 1062 1824 899 1600 
Q 736 1376 736 1094 
Q 736 755 989 534 
Q 1242 314 1613 314 
z
" transform="scale(0.015625)"/>
     </defs>
     <use xlink:href="#SourceSans3-Regular-34"/>
     <use xlink:href="#SourceSans3-Regular-38" x="49.699997"/>
    </g>
   </g>
   <g id="text_2">
    <!-- Fire Susceptibility Index -->
    <g style="fill: #0033a0" transform="translate(68.53125 15.744375) scale(0.12 -0.12)">
     <defs>
      <path id="SourceSans3-Regular-46" d="M 576 0 
L 576 4198 
L 2995 4198 
L 2995 3750 
L 1107 3750 
L 1107 2330 
L 2707 2330 
L 2707 1882 
L 1107 1882 
L 1107 0 
L 576 0 
z
" transform="scale(0.015625)"/>
      <path id="SourceSans3-Regular-69" d="M 525 0 
L 525 3110 
L 1050 3110 
L 1050 0 
L 525 0 
z
M 787 3750 
Q 634 3750 534 3843 
Q 435 3936 435 4096 
Q 435 4250 534 4346 
Q 634 4442 787 4442 
Q 941 4442 1040 4346 
Q 1139 4250 1139 4096 
Q 1139 3936 1040 3843 
Q 941 3750 787 3750 
z
" transform="scale(0.015625)"/>
      <path id="SourceSans3-Regular-72" d="M 525 0 
L 525 3110 
L 960 3110 
L 1005 2547 
L 1024 2547 
Q 1178 2842 1408 3014 
Q 1638 3187 1907 3187 
Q 2093 3187 2240 3123 
L 2125 2675 
Q 2054 2694 1993 2704 
Q 1933 2714 1837 2714 
Q 1638 2714 1424 2554 
Q 1210 2394 1050 1997 
L 1050 0 
L 525 0 
z
" transform="scale(0.015625)"/>
      <path id="SourceSans3-Regular-65" d="M 1702 2758 
Q 1510 2758 1328 2665 
Q 1146 2573 1014 2368 
Q 883 2163 838 1830 
L 2458 1830 
Q 2458 2285 2259 2521 
Q 2061 2758 1702 2758 
z
M 1786 -77 
Q 1370 -77 1027 115 
Q 685 307 486 675 
Q 288 1043 288 1555 
Q 288 2061 489 2425 
Q 691 2790 1014 2988 
Q 1338 3187 1696 3187 
Q 2298 3187 2614 2790 
Q 2931 2394 2931 1728 
Q 2931 1645 2924 1568 
Q 2918 1491 2906 1414 
L 826 1414 
Q 864 890 1161 621 
Q 1459 352 1850 352 
Q 2074 352 2269 416 
Q 2464 480 2624 589 
L 2816 243 
Q 2611 102 2358 12 
Q 2106 -77 1786 -77 
z
" transform="scale(0.015625)"/>
      <path id="SourceSans3-Regular-20" transform="scale(0.015625)"/>
      <path id="SourceSans3-Regular-53" d="M 1741 -77 
Q 1293 -77 918 89 
Q 544 256 269 550 
L 570 896 
Q 794 659 1104 524 
Q 1414 390 1747 390 
Q 2163 390 2393 579 
Q 2624 768 2624 1075 
Q 2624 1293 2531 1421 
Q 2438 1549 2281 1638 
Q 2125 1728 1926 1818 
L 1325 2080 
Q 1126 2170 928 2304 
Q 730 2438 602 2649 
Q 474 2861 474 3162 
Q 474 3482 643 3734 
Q 813 3987 1110 4131 
Q 1408 4275 1792 4275 
Q 2176 4275 2496 4134 
Q 2816 3994 3034 3770 
L 2746 3424 
Q 2547 3597 2310 3702 
Q 2074 3808 1792 3808 
Q 1440 3808 1225 3641 
Q 1011 3475 1011 3194 
Q 1011 2995 1116 2864 
Q 1222 2733 1382 2649 
Q 1542 2566 1709 2496 
L 2304 2240 
Q 2682 2080 2925 1833 
Q 3168 1587 3168 1120 
Q 3168 787 2995 515 
Q 2822 243 2505 83 
Q 2189 -77 1741 -77 
z
" transform="scale(0.015625)"/>
      <path id="SourceSans3-Regular-75" d="M 1434 -77 
Q 941 -77 710 233 
Q 480 544 480 1139 
L 480 3110 
L 1011 3110 
L 1011 1210 
Q 1011 774 1148 576 
Q 1286 378 1594 378 
Q 1837 378 2025 502 
Q 2214 627 2432 902 
L 2432 3110 
L 2957 3110 
L 2957 0 
L 2522 0 
L 2477 486 
L 2458 486 
Q 2240 230 1997 76 
Q 1754 -77 1434 -77 
z
" transform="scale(0.015625)"/>
      <path id="SourceSans3-Regular-73" d="M 1338 -77 
Q 998 -77 697 41 
Q 397 160 179 371 
L 422 678 
Q 627 512 848 422 
Q 1069 333 1357 333 
Q 1664 333 1817 477 
Q 1971 621 1971 819 
Q 1971 979 1868 1084 
Q 1766 1190 1606 1264 
Q 1446 1338 1267 1402 
Q 1037 1485 825 1597 
Q 614 1709 483 1878 
Q 352 2048 352 2304 
Q 352 2682 637 2934 
Q 922 3187 1427 3187 
Q 1715 3187 1964 3088 
Q 2214 2989 2394 2835 
L 2150 2534 
Q 1990 2650 1814 2714 
Q 1638 2778 1427 2778 
Q 1133 2778 995 2643 
Q 858 2509 858 2330 
Q 858 2118 1043 2009 
Q 1229 1901 1517 1798 
Q 1760 1715 1981 1600 
Q 2202 1485 2339 1309 
Q 2477 1133 2477 851 
Q 2477 602 2345 390 
Q 2214 179 1961 51 
Q 1709 -77 1338 -77 
z
" transform="scale(0.015625)"/>
      <path id="SourceSans3-Regular-63" d="M 1760 -77 
Q 1344 -77 1011 115 
Q 678 307 486 672 
Q 294 1037 294 1549 
Q 294 2074 502 2438 
Q 710 2803 1052 2995 
Q 1395 3187 1792 3187 
Q 2099 3187 2320 3084 
Q 2541 2982 2701 2822 
L 2438 2502 
Q 2317 2611 2166 2681 
Q 2016 2752 1811 2752 
Q 1536 2752 1315 2601 
Q 1094 2451 966 2179 
Q 838 1907 838 1549 
Q 838 1018 1107 688 
Q 1376 358 1805 358 
Q 2016 358 2201 441 
Q 2387 525 2528 653 
L 2758 333 
Q 2566 147 2313 35 
Q 2061 -77 1760 -77 
z
" transform="scale(0.015625)"/>
      <path id="SourceSans3-Regular-70" d="M 525 -1312 
L 525 3110 
L 960 3110 
L 1005 2752 
L 1024 2752 
Q 1235 2931 1488 3059 
Q 1741 3187 2016 3187 
Q 2618 3187 2931 2755 
Q 3245 2323 3245 1600 
Q 3245 1075 3056 697 
Q 2867 320 2563 121 
Q 2259 -77 1901 -77 
Q 1683 -77 1468 19 
Q 1254 115 1037 282 
L 1050 -262 
L 1050 -1312 
L 525 -1312 
z
M 1811 365 
Q 2195 365 2448 694 
Q 2701 1024 2701 1600 
Q 2701 2112 2512 2429 
Q 2323 2746 1882 2746 
Q 1683 2746 1481 2637 
Q 1280 2528 1050 2323 
L 1050 691 
Q 1261 512 1459 438 
Q 1658 365 1811 365 
z
" transform="scale(0.015625)"/>
      <path id="SourceSans3-Regular-74" d="M 1504 -58 
Q 1005 -58 809 227 
Q 614 512 614 979 
L 614 2682 
L 154 2682 
L 154 3078 
L 640 3110 
L 704 4109 
L 1146 4109 
L 1146 3110 
L 1984 3110 
L 1984 2682 
L 1146 2682 
L 1146 966 
Q 1146 685 1251 528 
Q 1357 371 1626 371 
Q 1709 371 1798 387 
Q 1888 403 1978 448 
L 2086 77 
Q 1965 13 1814 -22 
Q 1664 -58 1504 -58 
z
" transform="scale(0.015625)"/>
      <path id="SourceSans3-Regular-62" d="M 1901 -77 
Q 1683 -77 1449 28 
Q 1216 134 1011 320 
L 992 320 
L 947 0 
L 525 0 
L 525 4557 
L 1050 4557 
L 1050 3315 
L 1037 2752 
Q 1248 2938 1501 3062 
Q 1754 3187 2010 3187 
Q 2618 3187 2931 2758 
Q 3245 2330 3245 1606 
Q 3245 1075 3056 697 
Q 2867 320 2563 121 
Q 2259 -77 1901 -77 
z
M 1811 365 
Q 2195 365 2448 694 
Q 2701 1024 2701 1600 
Q 2701 2112 2512 2429 
Q 2323 2746 1882 2746 
Q 1683 2746 1478 2637 
Q 1274 2528 1050 2323 
L 1050 691 
Q 1254 512 1456 438 
Q 1658 365 1811 365 
z
" transform="scale(0.015625)"/>
      <path id="SourceSans3-Regular-6c" d="M 1082 -58 
Q 787 -58 656 124 
Q 525 307 525 640 
L 525 4557 
L 1050 4557 
L 1050 602 
Q 1050 480 1094 429 
Q 1139 378 1203 378 
Q 1229 378 1251 381 
Q 1274 384 1312 390 
L 1382 -6 
Q 1267 -58 1082 -58 
z
" transform="scale(0.015625)"/>
      <path id="SourceSans3-Regular-79" d="M 576 -1338 
Q 474 -1338 381 -1318 
Q 288 -1299 211 -1274 
L 326 -864 
Q 442 -902 550 -902 
Q 813 -902 985 -713 
Q 1158 -525 1254 -237 
L 1325 -6 
L 77 3110 
L 621 3110 
L 1254 1389 
Q 1325 1190 1405 960 
Q 1485 730 1555 512 
L 1581 512 
Q 1651 723 1715 953 
Q 1779 1184 1843 1389 
L 2400 3110 
L 2912 3110 
L 1741 -256 
Q 1632 -563 1481 -806 
Q 1331 -1050 1110 -1194 
Q 890 -1338 576 -1338 
z
" transform="scale(0.015625)"/>
      <path id="SourceSans3-Regular-49" d="M 576 0 
L 576 4198 
L 1107 4198 
L 1107 0 
L 576 0 
z
" transform="scale(0.015625)"/>
      <path id="SourceSans3-Regular-6e" d="M 525 0 
L 525 3110 
L 960 3110 
L 1005 2662 
L 1024 2662 
Q 1248 2886 1497 3036 
Q 1747 3187 2067 3187 
Q 2560 3187 2787 2876 
Q 3014 2566 3014 1971 
L 3014 0 
L 2490 0 
L 2490 1901 
Q 2490 2336 2349 2534 
Q 2208 2733 1901 2733 
Q 1664 2733 1475 2611 
Q 1286 2490 1050 2253 
L 1050 0 
L 525 0 
z
" transform="scale(0.015625)"/>
      <path id="SourceSans3-Regular-64" d="M 1587 -77 
Q 1005 -77 653 348 
Q 301 774 301 1549 
Q 301 2054 489 2422 
Q 678 2790 988 2988 
Q 1299 3187 1651 3187 
Q 1920 3187 2118 3091 
Q 2317 2995 2522 2829 
L 2496 3360 
L 2496 4557 
L 3027 4557 
L 3027 0 
L 2592 0 
L 2547 365 
L 2528 365 
Q 2349 186 2105 54 
Q 1862 -77 1587 -77 
z
M 1702 365 
Q 2112 365 2496 794 
L 2496 2419 
Q 2298 2598 2115 2672 
Q 1933 2746 1741 2746 
Q 1491 2746 1289 2595 
Q 1088 2445 966 2179 
Q 845 1914 845 1555 
Q 845 998 1069 681 
Q 1293 365 1702 365 
z
" transform="scale(0.015625)"/>
      <path id="SourceSans3-Regular-78" d="M 90 0 
L 1107 1626 
L 166 3110 
L 736 3110 
L 1152 2426 
Q 1222 2304 1299 2169 
Q 1376 2035 1459 1907 
L 1485 1907 
Q 1555 2035 1625 2169 
Q 1696 2304 1766 2426 
L 2144 3110 
L 2694 3110 
L 1754 1568 
L 2765 0 
L 2195 0 
L 1741 723 
Q 1658 864 1574 1005 
Q 1491 1146 1402 1280 
L 1376 1280 
Q 1293 1146 1216 1008 
Q 1139 870 1062 723 
L 640 0 
L 90 0 
z
" transform="scale(0.015625)"/>
     </defs>
     <use xlink:href="#SourceSans3-Regular-46"/>
     <use xlink:href="#SourceSans3-Regular-69" x="49.399994"/>
     <use xlink:href="#SourceSans3-Regular-72" x="73.999985"/>
     <use xlink:href="#SourceSans3-Regular-65" x="108.699982"/>
     <use xlink:href="#SourceSans3-Regular-20" x="158.299973"/>
     <use xlink:href="#SourceSans3-Regular-53" x="178.299957"/>
     <use xlink:href="#SourceSans3-Regular-75" x="231.699951"/>
     <use xlink:href="#SourceSans3-Regular-73" x="286.099945"/>
     <use xlink:href="#SourceSans3-Regular-63" x="327.999939"/>
     <use xlink:href="#SourceSans3-Regular-65" x="373.59993"/>
     <use xlink:href="#SourceSans3-Regular-70" x="423.199921"/>
     <use xlink:href="#SourceSans3-Regular-74" x="478.699905"/>
     <use xlink:href="#SourceSans3-Regular-69" x="512.499893"/>
     <use xlink:href="#SourceSans3-Regular-62" x="537.099884"/>
     <use xlink:href="#SourceSans3-Regular-69" x="592.399872"/>
     <use xlink:href="#SourceSans3-Regular-6c" x="616.999863"/>
     <use xlink:href="#SourceSans3-Regular-69" x="642.499847"/>
     <use xlink:href="#SourceSans3-Regular-74" x="667.099838"/>
     <use xlink:href="#SourceSans3-Regular-79" x="700.899826"/>
     <use xlink:href="#SourceSans3-Regular-20" x="747.599823"/>
     <use xlink:href="#SourceSans3-Regular-49" x="767.599808"/>
     <use xlink:href="#SourceSans3-Regular-6e" x="793.899796"/>
     <use xlink:href="#SourceSans3-Regular-64" x="848.599792"/>
     <use xlink:href="#SourceSans3-Regular-65" x="904.099777"/>
     <use xlink:href="#SourceSans3-Regular-78" x="953.699768"/>
    </g>
   </g>
  </g>
  <g id="axes_2">
   <g id="line2d_2">
    <path d="M 68.53125 72.144375 
L 235.93125 72.144375 
" clip-path="url(#pf6f3d38683)" style="fill: none; stroke: #808080; stroke-opacity: 0.1; stroke-linecap: square"/>
   </g>
   <g id="line2d_3">
    <path d="M 68.53125 129.744375 
L 235.93125 129.744375 
" clip-path="url(#pf6f3d38683)" style="fill: none; stroke: #808080; stroke-opacity: 0.1; stroke-linecap: square"/>
   </g>
   <g id="line2d_4">
    <path d="M 68.53125 110.544375 
L 235.93125 110.544375 
" clip-path="url(#pf6f3d38683)" style="fill: none; stroke: #808080; stroke-opacity: 0.1; stroke-linecap: square"/>
   </g>
   <g id="line2d_5">
    <path d="M 68.53125 91.344375 
L 235.93125 91.344375 
" clip-path="url(#pf6f3d38683)" style="fill: none; stroke: #808080; stroke-opacity: 0.1; stroke-linecap: square"/>
   </g>
   <g id="PathCollection_3">
    <defs>
     <path id="m08c9445a7b" d="M 0 7.071068 
C 1.875269 7.071068 3.673985 6.326016 5 5 
C 6.326016 3.673985 7.071068 1.875269 7.071068 0 
C 7.071068 -1.875269 6.326016 -3.673985 5 -5 
C 3.673985 -6.326016 1.875269 -7.071068 0 -7.071068 
C -1.875269 -7.071068 -3.673985 -6.326016 -5 -5 
C -6.326016 -3.673985 -7.071068 -1.875269 -7.071068 0 
C -7.071068 1.875269 -6.326016 3.673985 -5 5 
C -3.673985 6.326016 -1.875269 7.071068 0 7.071068 
z
" style="stroke: #dae0ef"/>
    </defs>
    <g>
     <use xlink:href="#m08c9445a7b" x="135.49125" y="129.744375" style="fill: #dae0ef; stroke: #dae0ef"/>
     <use xlink:href="#m08c9445a7b" x="177.26153" y="129.744375" style="fill: #dae0ef; stroke: #dae0ef"/>
     <use xlink:href="#m08c9445a7b" x="108.28875" y="129.744375" style="fill: #dae0ef; stroke: #dae0ef"/>
     <use xlink:href="#m08c9445a7b" x="159.206252" y="110.544375" style="fill: #dae0ef; stroke: #dae0ef"/>
     <use xlink:href="#m08c9445a7b" x="201.056259" y="110.544375" style="fill: #dae0ef; stroke: #dae0ef"/>
     <use xlink:href="#m08c9445a7b" x="194.08125" y="110.544375" style="fill: #dae0ef; stroke: #dae0ef"/>
     <use xlink:href="#m08c9445a7b" x="147" y="91.344375" style="fill: #dae0ef; stroke: #dae0ef"/>
     <use xlink:href="#m08c9445a7b" x="199.3125" y="91.344375" style="fill: #dae0ef; stroke: #dae0ef"/>
     <use xlink:href="#m08c9445a7b" x="107.765625" y="91.344375" style="fill: #dae0ef; stroke: #dae0ef"/>
     <use xlink:href="#m08c9445a7b" x="158.043755" y="72.144375" style="fill: #dae0ef; stroke: #dae0ef"/>
     <use xlink:href="#m08c9445a7b" x="203.381253" y="72.144375" style="fill: #dae0ef; stroke: #dae0ef"/>
     <use xlink:href="#m08c9445a7b" x="199.893761" y="72.144375" style="fill: #dae0ef; stroke: #dae0ef"/>
    </g>
   </g>
   <g id="PathCollection_4">
    <defs>
     <path id="C0_0_cdbafb2933" d="M 0 7.071068 
C 1.875269 7.071068 3.673985 6.326016 5 5 
C 6.326016 3.673985 7.071068 1.875269 7.071068 -0 
C 7.071068 -1.875269 6.326016 -3.673985 5 -5 
C 3.673985 -6.326016 1.875269 -7.071068 0 -7.071068 
C -1.875269 -7.071068 -3.673985 -6.326016 -5 -5 
C -6.326016 -3.673985 -7.071068 -1.875269 -7.071068 0 
C -7.071068 1.875269 -6.326016 3.673985 -5 5 
C -3.673985 6.326016 -1.875269 7.071068 0 7.071068 
z
"/>
    </defs>
    <use xlink:href="#C0_0_cdbafb2933" x="135.49125" y="129.744375" style="fill: #c43b38; stroke: #c43b38"/>
    <use xlink:href="#C0_0_cdbafb2933" x="159.206252" y="110.544375" style="fill: #ed7137; stroke: #ed7137"/>
    <use xlink:href="#C0_0_cdbafb2933" x="147" y="91.344375" style="fill: #6eb3b1; stroke: #6eb3b1"/>
    <use xlink:href="#C0_0_cdbafb2933" x="158.043755" y="72.144375" style="fill: #f4ba47; stroke: #f4ba47"/>
   </g>
   <g id="matplotlib.axis_3">
    <g id="xtick_7">
     <g id="text_3">
      <!-- 0 -->
      <g transform="translate(66.046094 146.744688) scale(0.1 -0.1)">
       <defs>
        <path id="SourceSans3-Regular-30" d="M 1594 -77 
Q 979 -77 630 476 
Q 282 1030 282 2054 
Q 282 3085 630 3622 
Q 979 4160 1594 4160 
Q 2202 4160 2550 3622 
Q 2899 3085 2899 2054 
Q 2899 1030 2550 476 
Q 2202 -77 1594 -77 
z
M 1594 346 
Q 1952 346 2169 752 
Q 2387 1158 2387 2054 
Q 2387 2950 2169 3344 
Q 1952 3738 1594 3738 
Q 1235 3738 1014 3344 
Q 794 2950 794 2054 
Q 794 1158 1014 752 
Q 1235 346 1594 346 
z
" transform="scale(0.015625)"/>
       </defs>
       <use xlink:href="#SourceSans3-Regular-30"/>
      </g>
     </g>
    </g>
    <g id="xtick_8">
     <g id="text_4">
      <!-- 20 -->
      <g transform="translate(97.040937 146.744688) scale(0.1 -0.1)">
       <defs>
        <path id="SourceSans3-Regular-32" d="M 256 0 
L 256 320 
Q 870 922 1299 1386 
Q 1728 1850 1952 2227 
Q 2176 2605 2176 2931 
Q 2176 3283 1984 3507 
Q 1792 3731 1402 3731 
Q 1146 3731 928 3587 
Q 710 3443 531 3238 
L 237 3526 
Q 493 3814 784 3987 
Q 1075 4160 1466 4160 
Q 2035 4160 2361 3830 
Q 2688 3501 2688 2963 
Q 2688 2566 2467 2176 
Q 2246 1786 1862 1357 
Q 1478 928 979 416 
Q 1146 429 1325 441 
Q 1504 454 1664 454 
L 2893 454 
L 2893 0 
L 256 0 
z
" transform="scale(0.015625)"/>
       </defs>
       <use xlink:href="#SourceSans3-Regular-32"/>
       <use xlink:href="#SourceSans3-Regular-30" x="49.699997"/>
      </g>
     </g>
    </g>
    <g id="xtick_9">
     <g id="text_5">
      <!-- 40 -->
      <g transform="translate(130.520938 146.744688) scale(0.1 -0.1)">
       <use xlink:href="#SourceSans3-Regular-34"/>
       <use xlink:href="#SourceSans3-Regular-30" x="49.699997"/>
      </g>
     </g>
    </g>
    <g id="xtick_10">
     <g id="text_6">
      <!-- 60 -->
      <g transform="translate(164.000937 146.744688) scale(0.1 -0.1)">
       <defs>
        <path id="SourceSans3-Regular-36" d="M 1670 2099 
Q 1472 2099 1241 1971 
Q 1011 1843 819 1562 
Q 870 966 1097 652 
Q 1325 339 1715 339 
Q 2016 339 2221 585 
Q 2426 832 2426 1235 
Q 2426 1632 2237 1865 
Q 2048 2099 1670 2099 
z
M 1715 -77 
Q 1318 -77 998 140 
Q 678 358 492 796 
Q 307 1235 307 1888 
Q 307 2707 528 3206 
Q 749 3706 1104 3933 
Q 1459 4160 1862 4160 
Q 2195 4160 2435 4035 
Q 2675 3910 2848 3725 
L 2554 3398 
Q 2432 3546 2253 3632 
Q 2074 3718 1882 3718 
Q 1594 3718 1357 3555 
Q 1120 3392 969 3011 
Q 819 2630 806 1984 
Q 998 2221 1254 2358 
Q 1510 2496 1760 2496 
Q 2291 2496 2608 2179 
Q 2925 1862 2925 1235 
Q 2925 845 2758 550 
Q 2592 256 2320 89 
Q 2048 -77 1715 -77 
z
" transform="scale(0.015625)"/>
       </defs>
       <use xlink:href="#SourceSans3-Regular-36"/>
       <use xlink:href="#SourceSans3-Regular-30" x="49.699997"/>
      </g>
     </g>
    </g>
    <g id="xtick_11">
     <g id="text_7">
      <!-- 80 -->
      <g transform="translate(197.480938 146.744688) scale(0.1 -0.1)">
       <use xlink:href="#SourceSans3-Regular-38"/>
       <use xlink:href="#SourceSans3-Regular-30" x="49.699997"/>
      </g>
     </g>
    </g>
    <g id="xtick_12">
     <g id="text_8">
      <!-- 100 -->
      <g transform="translate(228.475781 146.744688) scale(0.1 -0.1)">
       <defs>
        <path id="SourceSans3-Regular-31" d="M 506 0 
L 506 435 
L 1440 435 
L 1440 3443 
L 698 3443 
L 698 3782 
Q 979 3834 1187 3907 
Q 1395 3981 1562 4083 
L 1965 4083 
L 1965 435 
L 2810 435 
L 2810 0 
L 506 0 
z
" transform="scale(0.015625)"/>
       </defs>
       <use xlink:href="#SourceSans3-Regular-31"/>
       <use xlink:href="#SourceSans3-Regular-30" x="49.699997"/>
       <use xlink:href="#SourceSans3-Regular-30" x="99.399994"/>
      </g>
     </g>
    </g>
    <g id="text_9">
     <!-- FSI Index (higher = greater risk) -->
     <g style="fill: #8498cb" transform="translate(87.625781 160.115) scale(0.1 -0.1)">
      <defs>
       <path id="SourceSans3-Regular-28" d="M 1370 -1126 
Q 973 -480 749 227 
Q 525 934 525 1779 
Q 525 2624 749 3334 
Q 973 4045 1370 4685 
L 1696 4531 
Q 1325 3923 1142 3216 
Q 960 2509 960 1779 
Q 960 1050 1142 342 
Q 1325 -365 1696 -973 
L 1370 -1126 
z
" transform="scale(0.015625)"/>
       <path id="SourceSans3-Regular-68" d="M 525 0 
L 525 4557 
L 1050 4557 
L 1050 3315 
L 1030 2675 
Q 1254 2886 1500 3036 
Q 1747 3187 2067 3187 
Q 2560 3187 2787 2876 
Q 3014 2566 3014 1971 
L 3014 0 
L 2490 0 
L 2490 1901 
Q 2490 2336 2349 2534 
Q 2208 2733 1901 2733 
Q 1664 2733 1475 2611 
Q 1286 2490 1050 2253 
L 1050 0 
L 525 0 
z
" transform="scale(0.015625)"/>
       <path id="SourceSans3-Regular-67" d="M 1574 -1434 
Q 1005 -1434 646 -1216 
Q 288 -998 288 -595 
Q 288 -397 409 -214 
Q 531 -32 742 109 
L 742 134 
Q 627 205 547 333 
Q 467 461 467 640 
Q 467 838 576 985 
Q 685 1133 806 1216 
L 806 1242 
Q 653 1370 528 1587 
Q 403 1805 403 2080 
Q 403 2419 563 2668 
Q 723 2918 992 3052 
Q 1261 3187 1574 3187 
Q 1702 3187 1817 3164 
Q 1933 3142 2016 3110 
L 3098 3110 
L 3098 2707 
L 2451 2707 
L 2451 2682 
Q 2560 2579 2637 2425 
Q 2714 2272 2714 2061 
Q 2714 1734 2560 1491 
Q 2406 1248 2150 1117 
Q 1894 986 1574 986 
Q 1325 986 1107 1094 
Q 1024 1024 966 937 
Q 909 851 909 723 
Q 909 576 1027 480 
Q 1146 384 1459 384 
L 2061 384 
Q 2605 384 2877 208 
Q 3149 32 3149 -358 
Q 3149 -646 2957 -889 
Q 2765 -1133 2413 -1283 
Q 2061 -1434 1574 -1434 
z
M 1574 1338 
Q 1843 1338 2038 1539 
Q 2234 1741 2234 2080 
Q 2234 2419 2042 2611 
Q 1850 2803 1574 2803 
Q 1299 2803 1107 2611 
Q 915 2419 915 2080 
Q 915 1741 1110 1539 
Q 1306 1338 1574 1338 
z
M 1651 -1069 
Q 2099 -1069 2368 -873 
Q 2637 -678 2637 -435 
Q 2637 -218 2473 -134 
Q 2310 -51 2010 -51 
L 1472 -51 
Q 1382 -51 1276 -38 
Q 1171 -26 1069 0 
Q 902 -122 825 -256 
Q 749 -390 749 -525 
Q 749 -774 989 -921 
Q 1229 -1069 1651 -1069 
z
" transform="scale(0.015625)"/>
       <path id="SourceSans3-Regular-3d" d="M 218 2599 
L 218 2995 
L 2963 2995 
L 2963 2599 
L 218 2599 
z
M 218 1229 
L 218 1625 
L 2963 1625 
L 2963 1229 
L 218 1229 
z
" transform="scale(0.015625)"/>
       <path id="SourceSans3-Regular-61" d="M 1242 -77 
Q 851 -77 588 153 
Q 326 384 326 806 
Q 326 1331 787 1600 
Q 1248 1869 2246 1978 
Q 2246 2176 2188 2349 
Q 2131 2522 1993 2634 
Q 1856 2746 1600 2746 
Q 1331 2746 1094 2643 
Q 858 2541 672 2426 
L 467 2784 
Q 685 2931 1001 3059 
Q 1318 3187 1690 3187 
Q 2259 3187 2515 2838 
Q 2771 2490 2771 1907 
L 2771 0 
L 2336 0 
L 2291 371 
L 2272 371 
Q 2042 186 1789 54 
Q 1536 -77 1242 -77 
z
M 1389 358 
Q 1613 358 1817 460 
Q 2022 563 2246 762 
L 2246 1600 
Q 1722 1542 1414 1440 
Q 1107 1338 976 1190 
Q 845 1043 845 838 
Q 845 582 1005 470 
Q 1165 358 1389 358 
z
" transform="scale(0.015625)"/>
       <path id="SourceSans3-Regular-6b" d="M 525 0 
L 525 4557 
L 1050 4557 
L 1050 1478 
L 1062 1478 
L 2381 3110 
L 2970 3110 
L 1933 1856 
L 3110 0 
L 2534 0 
L 1626 1498 
L 1050 819 
L 1050 0 
L 525 0 
z
" transform="scale(0.015625)"/>
       <path id="SourceSans3-Regular-29" d="M 570 -1126 
L 243 -973 
Q 614 -365 796 342 
Q 979 1050 979 1779 
Q 979 2509 796 3216 
Q 614 3923 243 4531 
L 570 4685 
Q 966 4045 1190 3334 
Q 1414 2624 1414 1779 
Q 1414 934 1190 227 
Q 966 -480 570 -1126 
z
" transform="scale(0.015625)"/>
      </defs>
      <use xlink:href="#SourceSans3-Regular-46"/>
      <use xlink:href="#SourceSans3-Regular-53" x="49.399994"/>
      <use xlink:href="#SourceSans3-Regular-49" x="102.799988"/>
      <use xlink:href="#SourceSans3-Regular-20" x="129.099976"/>
      <use xlink:href="#SourceSans3-Regular-49" x="149.09996"/>
      <use xlink:href="#SourceSans3-Regular-6e" x="175.399948"/>
      <use xlink:href="#SourceSans3-Regular-64" x="230.099945"/>
      <use xlink:href="#SourceSans3-Regular-65" x="285.59993"/>
      <use xlink:href="#SourceSans3-Regular-78" x="335.199921"/>
      <use xlink:href="#SourceSans3-Regular-20" x="379.799911"/>
      <use xlink:href="#SourceSans3-Regular-28" x="399.799896"/>
      <use xlink:href="#SourceSans3-Regular-68" x="430.099884"/>
      <use xlink:href="#SourceSans3-Regular-69" x="484.499878"/>
      <use xlink:href="#SourceSans3-Regular-67" x="509.099869"/>
      <use xlink:href="#SourceSans3-Regular-68" x="559.499863"/>
      <use xlink:href="#SourceSans3-Regular-65" x="613.899857"/>
      <use xlink:href="#SourceSans3-Regular-72" x="663.499847"/>
      <use xlink:href="#SourceSans3-Regular-20" x="698.199844"/>
      <use xlink:href="#SourceSans3-Regular-3d" x="718.199829"/>
      <use xlink:href="#SourceSans3-Regular-20" x="767.899826"/>
      <use xlink:href="#SourceSans3-Regular-67" x="787.899811"/>
      <use xlink:href="#SourceSans3-Regular-72" x="838.299805"/>
      <use xlink:href="#SourceSans3-Regular-65" x="872.999802"/>
      <use xlink:href="#SourceSans3-Regular-61" x="922.599792"/>
      <use xlink:href="#SourceSans3-Regular-74" x="972.999786"/>
      <use xlink:href="#SourceSans3-Regular-65" x="1006.799774"/>
      <use xlink:href="#SourceSans3-Regular-72" x="1056.399765"/>
      <use xlink:href="#SourceSans3-Regular-20" x="1091.099762"/>
      <use xlink:href="#SourceSans3-Regular-72" x="1111.099747"/>
      <use xlink:href="#SourceSans3-Regular-69" x="1145.799744"/>
      <use xlink:href="#SourceSans3-Regular-73" x="1170.399734"/>
      <use xlink:href="#SourceSans3-Regular-6b" x="1212.299728"/>
      <use xlink:href="#SourceSans3-Regular-29" x="1261.799713"/>
     </g>
    </g>
   </g>
   <g id="matplotlib.axis_4">
    <g id="ytick_2">
     <g id="text_10">
      <!-- Environment -->
      <g style="fill: #c43b38" transform="translate(7.2 133.304531) scale(0.1 -0.1)">
       <defs>
        <path id="SourceSans3-Regular-45" d="M 576 0 
L 576 4198 
L 2995 4198 
L 2995 3750 
L 1107 3750 
L 1107 2432 
L 2701 2432 
L 2701 1978 
L 1107 1978 
L 1107 454 
L 3059 454 
L 3059 0 
L 576 0 
z
" transform="scale(0.015625)"/>
        <path id="SourceSans3-Regular-76" d="M 1197 0 
L 77 3110 
L 621 3110 
L 1210 1344 
Q 1280 1114 1353 883 
Q 1427 653 1498 429 
L 1523 429 
Q 1594 653 1667 883 
Q 1741 1114 1805 1344 
L 2394 3110 
L 2912 3110 
L 1811 0 
L 1197 0 
z
" transform="scale(0.015625)"/>
        <path id="SourceSans3-Regular-6f" d="M 1734 -77 
Q 1357 -77 1027 115 
Q 698 307 496 672 
Q 294 1037 294 1549 
Q 294 2074 496 2438 
Q 698 2803 1027 2995 
Q 1357 3187 1734 3187 
Q 2118 3187 2444 2995 
Q 2771 2803 2972 2438 
Q 3174 2074 3174 1549 
Q 3174 1037 2972 672 
Q 2771 307 2444 115 
Q 2118 -77 1734 -77 
z
M 1734 358 
Q 2138 358 2384 688 
Q 2630 1018 2630 1549 
Q 2630 2086 2384 2419 
Q 2138 2752 1734 2752 
Q 1338 2752 1088 2419 
Q 838 2086 838 1549 
Q 838 1018 1088 688 
Q 1338 358 1734 358 
z
" transform="scale(0.015625)"/>
        <path id="SourceSans3-Regular-6d" d="M 525 0 
L 525 3110 
L 960 3110 
L 1005 2662 
L 1024 2662 
Q 1229 2886 1472 3036 
Q 1715 3187 1990 3187 
Q 2349 3187 2550 3030 
Q 2752 2874 2848 2592 
Q 3091 2854 3340 3020 
Q 3590 3187 3872 3187 
Q 4352 3187 4585 2876 
Q 4819 2566 4819 1971 
L 4819 0 
L 4294 0 
L 4294 1901 
Q 4294 2336 4153 2534 
Q 4013 2733 3718 2733 
Q 3373 2733 2938 2253 
L 2938 0 
L 2413 0 
L 2413 1901 
Q 2413 2336 2272 2534 
Q 2131 2733 1830 2733 
Q 1485 2733 1050 2253 
L 1050 0 
L 525 0 
z
" transform="scale(0.015625)"/>
       </defs>
       <use xlink:href="#SourceSans3-Regular-45"/>
       <use xlink:href="#SourceSans3-Regular-6e" x="52.699997"/>
       <use xlink:href="#SourceSans3-Regular-76" x="107.399994"/>
       <use xlink:href="#SourceSans3-Regular-69" x="154.099991"/>
       <use xlink:href="#SourceSans3-Regular-72" x="178.699982"/>
       <use xlink:href="#SourceSans3-Regular-6f" x="213.399979"/>
       <use xlink:href="#SourceSans3-Regular-6e" x="267.599976"/>
       <use xlink:href="#SourceSans3-Regular-6d" x="322.299973"/>
       <use xlink:href="#SourceSans3-Regular-65" x="405.199966"/>
       <use xlink:href="#SourceSans3-Regular-6e" x="454.799957"/>
       <use xlink:href="#SourceSans3-Regular-74" x="509.499954"/>
      </g>
     </g>
    </g>
    <g id="ytick_3">
     <g id="text_11">
      <!-- Fuel -->
      <g style="fill: #ed7137" transform="translate(43.640625 114.104531) scale(0.1 -0.1)">
       <use xlink:href="#SourceSans3-Regular-46"/>
       <use xlink:href="#SourceSans3-Regular-75" x="49.399994"/>
       <use xlink:href="#SourceSans3-Regular-65" x="103.799988"/>
       <use xlink:href="#SourceSans3-Regular-6c" x="153.399979"/>
      </g>
     </g>
    </g>
    <g id="ytick_4">
     <g id="text_12">
      <!-- Behaviour -->
      <g style="fill: #6eb3b1" transform="translate(18.75 94.904531) scale(0.1 -0.1)">
       <defs>
        <path id="SourceSans3-Regular-42" d="M 576 0 
L 576 4198 
L 1824 4198 
Q 2253 4198 2576 4096 
Q 2899 3994 3081 3770 
Q 3264 3546 3264 3174 
Q 3264 2848 3107 2601 
Q 2950 2355 2650 2259 
L 2650 2234 
Q 3046 2163 3276 1916 
Q 3507 1670 3507 1248 
Q 3507 832 3305 553 
Q 3104 275 2745 137 
Q 2387 0 1914 0 
L 576 0 
z
M 1107 2413 
L 1728 2413 
Q 2266 2413 2502 2598 
Q 2739 2784 2739 3104 
Q 2739 3469 2492 3622 
Q 2246 3776 1754 3776 
L 1107 3776 
L 1107 2413 
z
M 1107 422 
L 1837 422 
Q 2381 422 2681 624 
Q 2982 826 2982 1248 
Q 2982 1638 2684 1820 
Q 2387 2003 1837 2003 
L 1107 2003 
L 1107 422 
z
" transform="scale(0.015625)"/>
       </defs>
       <use xlink:href="#SourceSans3-Regular-42"/>
       <use xlink:href="#SourceSans3-Regular-65" x="58.799988"/>
       <use xlink:href="#SourceSans3-Regular-68" x="108.399979"/>
       <use xlink:href="#SourceSans3-Regular-61" x="162.799973"/>
       <use xlink:href="#SourceSans3-Regular-76" x="213.199966"/>
       <use xlink:href="#SourceSans3-Regular-69" x="259.899963"/>
       <use xlink:href="#SourceSans3-Regular-6f" x="284.499954"/>
       <use xlink:href="#SourceSans3-Regular-75" x="338.699951"/>
       <use xlink:href="#SourceSans3-Regular-72" x="393.099945"/>
      </g>
     </g>
    </g>
    <g id="ytick_5">
     <g id="text_13">
      <!-- Response -->
      <g style="fill: #f4ba47" transform="translate(21.1 75.704531) scale(0.1 -0.1)">
       <defs>
        <path id="SourceSans3-Regular-52" d="M 576 0 
L 576 4198 
L 1888 4198 
Q 2317 4198 2649 4086 
Q 2982 3974 3171 3715 
Q 3360 3456 3360 3021 
Q 3360 2534 3104 2236 
Q 2848 1939 2413 1830 
L 3482 0 
L 2880 0 
L 1869 1773 
L 1107 1773 
L 1107 0 
L 576 0 
z
M 1107 2208 
L 1811 2208 
Q 2304 2208 2566 2409 
Q 2829 2611 2829 3021 
Q 2829 3437 2566 3603 
Q 2304 3770 1811 3770 
L 1107 3770 
L 1107 2208 
z
" transform="scale(0.015625)"/>
       </defs>
       <use xlink:href="#SourceSans3-Regular-52"/>
       <use xlink:href="#SourceSans3-Regular-65" x="56.899994"/>
       <use xlink:href="#SourceSans3-Regular-73" x="106.499985"/>
       <use xlink:href="#SourceSans3-Regular-70" x="148.399979"/>
       <use xlink:href="#SourceSans3-Regular-6f" x="203.899963"/>
       <use xlink:href="#SourceSans3-Regular-6e" x="258.09996"/>
       <use xlink:href="#SourceSans3-Regular-73" x="312.799957"/>
       <use xlink:href="#SourceSans3-Regular-65" x="354.699951"/>
      </g>
     </g>
    </g>
   </g>
   <g id="text_14">
    <!-- 40 -->
    <g style="fill: #ffffff" transform="translate(131.017969 132.026016) scale(0.09 -0.09)">
     <use xlink:href="#SourceSans3-Regular-34"/>
     <use xlink:href="#SourceSans3-Regular-30" x="49.699997"/>
    </g>
   </g>
   <g id="text_15">
    <!-- 54 -->
    <g style="fill: #ffffff" transform="translate(154.732971 112.826016) scale(0.09 -0.09)">
     <defs>
      <path id="SourceSans3-Regular-35" d="M 1498 -77 
Q 1011 -77 691 96 
Q 371 269 160 480 
L 416 826 
Q 602 646 845 502 
Q 1088 358 1446 358 
Q 1824 358 2083 611 
Q 2342 864 2342 1293 
Q 2342 1715 2105 1952 
Q 1869 2189 1472 2189 
Q 1261 2189 1110 2125 
Q 960 2061 774 1939 
L 493 2118 
L 627 4083 
L 2669 4083 
L 2669 3629 
L 1088 3629 
L 979 2419 
Q 1126 2496 1273 2541 
Q 1421 2586 1606 2586 
Q 1958 2586 2243 2448 
Q 2528 2310 2701 2028 
Q 2874 1747 2874 1306 
Q 2874 864 2678 553 
Q 2483 243 2169 83 
Q 1856 -77 1498 -77 
z
" transform="scale(0.015625)"/>
     </defs>
     <use xlink:href="#SourceSans3-Regular-35"/>
     <use xlink:href="#SourceSans3-Regular-34" x="49.699997"/>
    </g>
   </g>
   <g id="text_16">
    <!-- 46 -->
    <g style="fill: #ffffff" transform="translate(142.526719 93.626016) scale(0.09 -0.09)">
     <use xlink:href="#SourceSans3-Regular-34"/>
     <use xlink:href="#SourceSans3-Regular-36" x="49.699997"/>
    </g>
   </g>
   <g id="text_17">
    <!-- 53 -->
    <g style="fill: #ffffff" transform="translate(153.570474 74.426016) scale(0.09 -0.09)">
     <defs>
      <path id="SourceSans3-Regular-33" d="M 1510 -77 
Q 1024 -77 697 99 
Q 371 275 166 499 
L 435 845 
Q 621 653 870 505 
Q 1120 358 1478 358 
Q 1850 358 2086 563 
Q 2323 768 2323 1107 
Q 2323 1350 2198 1532 
Q 2074 1715 1789 1817 
Q 1504 1920 1018 1920 
L 1018 2323 
Q 1453 2323 1705 2425 
Q 1958 2528 2067 2701 
Q 2176 2874 2176 3085 
Q 2176 3386 1987 3558 
Q 1798 3731 1472 3731 
Q 1216 3731 1001 3616 
Q 787 3501 602 3315 
L 320 3648 
Q 557 3872 845 4016 
Q 1133 4160 1491 4160 
Q 2022 4160 2368 3888 
Q 2714 3616 2714 3123 
Q 2714 2752 2509 2515 
Q 2304 2278 1971 2150 
L 1971 2125 
Q 2342 2042 2598 1776 
Q 2854 1510 2854 1088 
Q 2854 730 2675 467 
Q 2496 205 2192 64 
Q 1888 -77 1510 -77 
z
" transform="scale(0.015625)"/>
     </defs>
     <use xlink:href="#SourceSans3-Regular-35"/>
     <use xlink:href="#SourceSans3-Regular-33" x="49.699997"/>
    </g>
   </g>
   <g id="text_18">
    <!-- Dimensions -->
    <g style="fill: #0033a0" transform="translate(68.53125 63.264375) scale(0.12 -0.12)">
     <defs>
      <path id="SourceSans3-Regular-44" d="M 576 0 
L 576 4198 
L 1626 4198 
Q 2598 4198 3104 3657 
Q 3610 3117 3610 2118 
Q 3610 1114 3107 557 
Q 2605 0 1651 0 
L 576 0 
z
M 1107 435 
L 1587 435 
Q 2323 435 2691 880 
Q 3059 1325 3059 2118 
Q 3059 2912 2691 3337 
Q 2323 3763 1587 3763 
L 1107 3763 
L 1107 435 
z
" transform="scale(0.015625)"/>
     </defs>
     <use xlink:href="#SourceSans3-Regular-44"/>
     <use xlink:href="#SourceSans3-Regular-69" x="61.499985"/>
     <use xlink:href="#SourceSans3-Regular-6d" x="86.099976"/>
     <use xlink:href="#SourceSans3-Regular-65" x="168.999969"/>
     <use xlink:href="#SourceSans3-Regular-6e" x="218.59996"/>
     <use xlink:href="#SourceSans3-Regular-73" x="273.299957"/>
     <use xlink:href="#SourceSans3-Regular-69" x="315.199951"/>
     <use xlink:href="#SourceSans3-Regular-6f" x="339.799942"/>
     <use xlink:href="#SourceSans3-Regular-6e" x="393.999939"/>
     <use xlink:href="#SourceSans3-Regular-73" x="448.699936"/>
    </g>
   </g>
  </g>
 </g>
 <defs>
  <clipPath id="p587f443861">
   <rect x="68.53125" y="21.744375" width="167.4" height="15.84"/>
  </clipPath>
  <clipPath id="pf6f3d38683">
   <rect x="68.53125" y="69.264375" width="167.4" height="63.36"/>
  </clipPath>
 </defs>
</svg>
