<svg width="30" height="30" viewBox="0 0 24 24" fill="none" xmlns="http://www.w3.org/2000/svg">
  <defs>
    <linearGradient id="grad1" x1="0%" y1="0%" x2="100%" y2="100%">
      <stop offset="0%" style="stop-color:#FF4500;stop-opacity:1" />
      <stop offset="100%" style="stop-color:#FFD700;stop-opacity:1" />
    </linearGradient>
  </defs>
  <circle cx="12" cy="12" r="10" stroke="url(#grad1)" stroke-width="2" fill="none"/>
  <path d="M12 2C9 6 6 10 6 14C6 18 9 22 12 22C15 22 18 18 18 14C18 10 15 6 12 2Z" fill="url(#grad1)"/>
  <path d="M12 12C11 14 9 16 9 18C9 20 11 22 12 22C13 22 15 20 15 18C15 16 13 14 12 12Z" fill="#FF6347"/>
</svg>